<svg xmlns="http://www.w3.org/2000/svg" style="display: none;">
  <symbol id="icon-apple-tv-plus" viewBox="0 0 108 28">
    <path d="M8.04 4.32C9.56 4.32 11.24 5.56 11.24 5.56C11.24 5.56 10.12 3.4 8.44 3.4C7.52 3.32 6.44 3.88 5.8 4.6C5.04 5.56 4.4 6.84 4.4 8.2C4.4 10.84 6.2 12.2 7.8 12.2C9.32 12.2 10.64 11.24 10.72 11.24C10.72 11.24 9.4 13.24 7.8 13.24C6.28 13.24 4.84 12.2 4.12 11.24C3.24 10.12 2.76 8.68 2.76 7.16C2.76 5 4.44 3.24 6.44 3.24C6.96 3.24 7.56 3.4 8.04 3.72V4.32Z M7.4 2.12C6.92 1.48 6.04 1.08 5.12 1.08C2.52 1.08 0.6 3.24 0.6 6.84C0.6 10.52 2.68 12.92 5.12 12.92C6 12.92 6.84 12.52 7.4 11.88C7.48 11.8 7.48 11.8 7.4 11.8C7.4 11.8 7.32 11.88 7.24 11.88C6.6 12.52 5.72 12.92 4.8 12.92C2.2 12.92 0.28 10.76 0.28 7.16C0.28 3.48 2.36 1.08 4.8 1.08C5.72 1.08 6.52 1.48 7.16 2.12H7.4V2.12Z"></path>
    <path d="M15.48 1.4C16.84 1.4 17.84 2.2 18.24 3.16L20.28 1.64C19.4 0.52 17.8 0 15.64 0C12.12 0 9.8 2.68 9.8 6.52C9.8 10.36 12.2 13 15.64 13C17.8 13 19.4 12.48 20.28 11.36L18.24 9.84C17.84 10.8 16.84 11.6 15.48 11.6C13.64 11.6 12.44 10 12.44 6.52C12.44 3 13.64 1.4 15.48 1.4Z"></path>
    <path d="M26.46 1.4C28.3 1.4 29.5 3 29.5 6.52C29.5 10 28.3 11.6 26.46 11.6C24.62 11.6 23.42 10 23.42 6.52C23.42 3 24.62 1.4 26.46 1.4ZM26.46 0C23.22 0 20.78 2.68 20.78 6.52C20.78 10.36 23.22 13 26.46 13C29.7 13 32.14 10.36 32.14 6.52C32.14 2.68 29.7 0 26.46 0Z"></path>
    <path d="M38.48 1.4C40.32 1.4 41.52 3 41.52 6.52C41.52 10 40.32 11.6 38.48 11.6C36.64 11.6 35.44 10 35.44 6.52C35.44 3 36.64 1.4 38.48 1.4ZM38.48 0C35.24 0 32.8 2.68 32.8 6.52C32.8 10.36 35.24 13 38.48 13C41.72 13 44.16 10.36 44.16 6.52C44.16 2.68 41.72 0 38.48 0Z"></path>
    <path d="M46.73 0.28H49.37V12.72H46.73V0.28Z"></path>
    <path d="M57.69 4.36L55.85 4.84C55.77 3.24 54.81 1.4 52.89 1.4C51.13 1.4 50.17 2.68 50.17 4.6C50.17 6.12 50.89 6.84 52.41 7.8L53.61 8.52C55.29 9.64 56.09 10.44 56.09 11.8C56.09 13.56 54.81 14.4 53.05 14.4C51.05 14.4 49.85 13.16 49.45 11.4L51.29 10.92C51.45 12.52 52.25 13 53.05 13C54.17 13 54.73 12.44 54.73 11.64C54.73 10.6 54.17 10 52.65 9.08L51.37 8.28C49.93 7.4 49.29 6.6 49.29 5C49.29 2.84 50.73 1.48 52.25 0.28C53.45 -0.44 55.21 0.44 55.85 2.52L57.69 2.04V4.36Z"></path>
    <path d="M64.63 1.4C66.15 1.4 67.35 2.52 67.35 4.52V12.72H64.71V4.84C64.71 3.4 64.07 2.84 63.11 2.84C62.07 2.84 61.51 3.48 61.51 4.84V12.72H58.87V0.28H61.51V2.12C62.15 0.92 63.27 0 64.63 0V1.4Z"></path>
    <path d="M77.58 24.32C77.58 24.32 79.74 21.68 82.38 21.68C85.1 21.68 86.94 23.44 86.94 23.44C86.94 23.44 85.34 25.84 82.7 25.84C80.06 25.84 78.3 24.32 77.58 24.32Z M88.94 15.6C88.94 15.6 87.26 14.96 85.74 16.16C84.14 17.44 83.1 19.2 83.1 21.04C83.1 21.04 83.1 21.12 83.1 21.12C83.18 21.12 83.18 21.04 83.18 21.04C83.18 19.2 84.22 17.44 85.82 16.16C87.34 14.96 89.02 15.6 89.02 15.6L88.94 15.6Z"></path>
    <path d="M96.34 22.08H93.14V19.92H96.34V18.16H93.14V16H96.74V14.24H90.5V25.84H96.74V23.84H93.14V22.08H96.34Z M104.74 14.24L101.94 21.52L99.14 14.24H96.74L100.82 23.6V25.84H103.06V23.6L107.14 14.24H104.74Z"></path>
  </symbol>
  <symbol id="icon-search" viewBox="0 0 24 24" fill="none" stroke="currentColor" stroke-width="2" stroke-linecap="round" stroke-linejoin="round">
    <circle cx="11" cy="11" r="8"></circle>
    <line x1="21" y1="21" x2="16.65" y2="16.65"></line>
  </symbol>
  <symbol id="icon-play" viewBox="0 0 24 24" fill="currentColor">
    <path d="M8 5v14l11-7z"></path>
  </symbol>
  <symbol id="icon-arrow-left" viewBox="0 0 24 24" fill="none" stroke="currentColor" stroke-width="2.5" stroke-linecap="round" stroke-linejoin="round">
    <polyline points="15 18 9 12 15 6"></polyline>
  </symbol>
  <symbol id="icon-arrow-right" viewBox="0 0 24 24" fill="none" stroke="currentColor" stroke-width="2.5" stroke-linecap="round" stroke-linejoin="round">
    <polyline points="9 18 15 12 9 6"></polyline>
  </symbol>
</svg>
